HIERARCHY
ROOT Scene_Root
{
	OFFSET 0 0 0
	CHANNELS 9 Xposition Yposition Zposition Zrotation Xrotation Yrotation Xscale Yscale Zscale
	JOINT Main__Hips_
	{
		OFFSET -0.657099 0.217995 0.617325
		CHANNELS 9 Xposition Yposition Zposition Zrotation Xrotation Yrotation Xscale Yscale Zscale
		JOINT LeftUpperLeg
		{
			OFFSET 0.05 0.1 0
			CHANNELS 9 Xposition Yposition Zposition Zrotation Xrotation Yrotation Xscale Yscale Zscale
			JOINT LeftLowerLeg
			{
				OFFSET 0.399104 -0.131428 0.028
				CHANNELS 9 Xposition Yposition Zposition Zrotation Xrotation Yrotation Xscale Yscale Zscale
				JOINT LeftFoot
				{
					OFFSET 0.285784 -0.0463966 -0.345872
					CHANNELS 9 Xposition Yposition Zposition Zrotation Xrotation Yrotation Xscale Yscale Zscale
					JOINT LeftToes
					{
						OFFSET 0.105709 -0.0588492 -0.0498728
						CHANNELS 9 Xposition Yposition Zposition Zrotation Xrotation Yrotation Xscale Yscale Zscale
						End Site
						{
							OFFSET 0 0 0
						}
					}
				}
			}
		}
		JOINT RightUpperLeg
		{
			OFFSET 0.05 -0.1 0
			CHANNELS 9 Xposition Yposition Zposition Zrotation Xrotation Yrotation Xscale Yscale Zscale
			JOINT RightLowerLeg
			{
				OFFSET 0.419986 -0.0230001 0.028
				CHANNELS 9 Xposition Yposition Zposition Zrotation Xrotation Yrotation Xscale Yscale Zscale
				JOINT RightFoot
				{
					OFFSET -0.120948 -0.0249048 -0.433825
					CHANNELS 9 Xposition Yposition Zposition Zrotation Xrotation Yrotation Xscale Yscale Zscale
					JOINT RightToes
					{
						OFFSET 0.0866297 -0.00854851 -0.0977099
						CHANNELS 9 Xposition Yposition Zposition Zrotation Xrotation Yrotation Xscale Yscale Zscale
						End Site
						{
							OFFSET 0 0 0
						}
					}
				}
			}
		}
		JOINT LowerBack
		{
			OFFSET -0.09 1.49012e-008 0
			CHANNELS 9 Xposition Yposition Zposition Zrotation Xrotation Yrotation Xscale Yscale Zscale
			JOINT Back
			{
				OFFSET -0.14 2.98023e-008 0
				CHANNELS 9 Xposition Yposition Zposition Zrotation Xrotation Yrotation Xscale Yscale Zscale
				JOINT Chest
				{
					OFFSET -0.179315 0.0156881 0
					CHANNELS 9 Xposition Yposition Zposition Zrotation Xrotation Yrotation Xscale Yscale Zscale
					JOINT Neck
					{
						OFFSET -0.209201 0.0183028 -0.027
						CHANNELS 9 Xposition Yposition Zposition Zrotation Xrotation Yrotation Xscale Yscale Zscale
						End Site
						{
							OFFSET 0 0 0
						}
					}
					JOINT LeftUpperArm
					{
						OFFSET -0.092586 0.203845 -0.045
						CHANNELS 9 Xposition Yposition Zposition Zrotation Xrotation Yrotation Xscale Yscale Zscale
						JOINT LeftLowerArm
						{
							OFFSET 0.33056 -0.0334888 -0.0738803
							CHANNELS 9 Xposition Yposition Zposition Zrotation Xrotation Yrotation Xscale Yscale Zscale
							JOINT LeftHand
							{
								OFFSET 0.0848216 -0.197845 -0.0664274
								CHANNELS 9 Xposition Yposition Zposition Zrotation Xrotation Yrotation Xscale Yscale Zscale
								JOINT LTumb1
								{
									OFFSET 0.0675511 -0.0224315 -0.0232204
									CHANNELS 9 Xposition Yposition Zposition Zrotation Xrotation Yrotation Xscale Yscale Zscale
									JOINT LTumb2
									{
										OFFSET 0.0366449 -0.0138985 -0.00633952
										CHANNELS 9 Xposition Yposition Zposition Zrotation Xrotation Yrotation Xscale Yscale Zscale
										End Site
										{
											OFFSET 0 0 0
										}
									}
								}
								JOINT LForeFinger1
								{
									OFFSET 0.0784209 -0.0843814 -0.0347615
									CHANNELS 9 Xposition Yposition Zposition Zrotation Xrotation Yrotation Xscale Yscale Zscale
									JOINT LForeFinger2
									{
										OFFSET 0.0188054 -0.0238559 -0.00419301
										CHANNELS 9 Xposition Yposition Zposition Zrotation Xrotation Yrotation Xscale Yscale Zscale
										JOINT LForeFinger3
										{
											OFFSET 0.0146422 -0.0194241 -0.00404462
											CHANNELS 9 Xposition Yposition Zposition Zrotation Xrotation Yrotation Xscale Yscale Zscale
											End Site
											{
												OFFSET 0 0 0
											}
										}
									}
								}
								JOINT LMiddleFinger1
								{
									OFFSET 0.0530897 -0.10158 -0.0364084
									CHANNELS 9 Xposition Yposition Zposition Zrotation Xrotation Yrotation Xscale Yscale Zscale
									JOINT LMiddleFinger2
									{
										OFFSET 0.0183426 -0.0266653 -0.0054746
										CHANNELS 9 Xposition Yposition Zposition Zrotation Xrotation Yrotation Xscale Yscale Zscale
										JOINT LMiddleFinger3
										{
											OFFSET 0.0145626 -0.0234583 -0.00728089
											CHANNELS 9 Xposition Yposition Zposition Zrotation Xrotation Yrotation Xscale Yscale Zscale
											End Site
											{
												OFFSET 0 0 0
											}
										}
									}
								}
								JOINT LRingFinger1
								{
									OFFSET 0.0266498 -0.114598 -0.0340007
									CHANNELS 9 Xposition Yposition Zposition Zrotation Xrotation Yrotation Xscale Yscale Zscale
									JOINT LRingFinger2
									{
										OFFSET 0.00975519 -0.0267833 -0.00396106
										CHANNELS 9 Xposition Yposition Zposition Zrotation Xrotation Yrotation Xscale Yscale Zscale
										JOINT LRingFinger3
										{
											OFFSET 0.00826085 -0.0231808 -0.00527376
											CHANNELS 9 Xposition Yposition Zposition Zrotation Xrotation Yrotation Xscale Yscale Zscale
											End Site
											{
												OFFSET 0 0 0
											}
										}
									}
								}
								JOINT LLittleFinger1
								{
									OFFSET -0.00528204 -0.117264 -0.0312425
									CHANNELS 9 Xposition Yposition Zposition Zrotation Xrotation Yrotation Xscale Yscale Zscale
									JOINT LLittleFinger2
									{
										OFFSET 0.00271308 -0.0170652 0.00299892
										CHANNELS 9 Xposition Yposition Zposition Zrotation Xrotation Yrotation Xscale Yscale Zscale
										JOINT LLittleFinger3
										{
											OFFSET 0.00267184 -0.0234923 -0.00207704
											CHANNELS 9 Xposition Yposition Zposition Zrotation Xrotation Yrotation Xscale Yscale Zscale
											End Site
											{
												OFFSET 0 0 0
											}
										}
									}
								}
							}
						}
					}
					JOINT RightUpperArm
					{
						OFFSET -0.126577 -0.184671 -0.045
						CHANNELS 9 Xposition Yposition Zposition Zrotation Xrotation Yrotation Xscale Yscale Zscale
						JOINT RightLowerArm
						{
							OFFSET 0.269815 -0.0192524 0.20659
							CHANNELS 9 Xposition Yposition Zposition Zrotation Xrotation Yrotation Xscale Yscale Zscale
							JOINT RightHand
							{
								OFFSET -0.121469 -0.0040591 0.189681
								CHANNELS 9 Xposition Yposition Zposition Zrotation Xrotation Yrotation Xscale Yscale Zscale
								JOINT RTumb1
								{
									OFFSET -0.0271664 -0.0548101 0.0431677
									CHANNELS 9 Xposition Yposition Zposition Zrotation Xrotation Yrotation Xscale Yscale Zscale
									JOINT RTumb2
									{
										OFFSET -0.0198648 -0.0281125 0.019781
										CHANNELS 9 Xposition Yposition Zposition Zrotation Xrotation Yrotation Xscale Yscale Zscale
										End Site
										{
											OFFSET 0 0 0
										}
									}
								}
								JOINT RForeFinger1
								{
									OFFSET -0.0647718 -0.040637 0.0929068
									CHANNELS 9 Xposition Yposition Zposition Zrotation Xrotation Yrotation Xscale Yscale Zscale
									JOINT RForeFinger2
									{
										OFFSET -0.0205494 -0.00764802 0.0214373
										CHANNELS 9 Xposition Yposition Zposition Zrotation Xrotation Yrotation Xscale Yscale Zscale
										JOINT RForeFinger3
										{
											OFFSET -0.0160587 -0.00571647 0.0178182
											CHANNELS 9 Xposition Yposition Zposition Zrotation Xrotation Yrotation Xscale Yscale Zscale
											End Site
											{
												OFFSET 0 0 0
											}
										}
									}
								}
								JOINT RMiddleFinger1
								{
									OFFSET -0.0647509 -0.0109917 0.100743
									CHANNELS 9 Xposition Yposition Zposition Zrotation Xrotation Yrotation Xscale Yscale Zscale
									JOINT RMiddleFinger2
									{
										OFFSET -0.0213846 -0.00625579 0.0241046
										CHANNELS 9 Xposition Yposition Zposition Zrotation Xrotation Yrotation Xscale Yscale Zscale
										JOINT RMiddleFinger3
										{
											OFFSET -0.0166031 -0.00444521 0.0228025
											CHANNELS 9 Xposition Yposition Zposition Zrotation Xrotation Yrotation Xscale Yscale Zscale
											End Site
											{
												OFFSET 0 0 0
											}
										}
									}
								}
								JOINT RRingFinger1
								{
									OFFSET -0.0641316 0.0185061 0.102682
									CHANNELS 9 Xposition Yposition Zposition Zrotation Xrotation Yrotation Xscale Yscale Zscale
									JOINT RRingFinger2
									{
										OFFSET -0.0189581 0.00173159 0.0215822
										CHANNELS 9 Xposition Yposition Zposition Zrotation Xrotation Yrotation Xscale Yscale Zscale
										JOINT RRingFinger3
										{
											OFFSET -0.0151563 0.0013964 0.0200436
											CHANNELS 9 Xposition Yposition Zposition Zrotation Xrotation Yrotation Xscale Yscale Zscale
											End Site
											{
												OFFSET 0 0 0
											}
										}
									}
								}
								JOINT RLittleFinger1
								{
									OFFSET -0.0547365 0.0487128 0.096881
									CHANNELS 9 Xposition Yposition Zposition Zrotation Xrotation Yrotation Xscale Yscale Zscale
									JOINT RLittleFinger2
									{
										OFFSET -0.0141898 0.00505111 0.00898385
										CHANNELS 9 Xposition Yposition Zposition Zrotation Xrotation Yrotation Xscale Yscale Zscale
										JOINT RLittleFinger3
										{
											OFFSET -0.0151428 0.00701105 0.0168785
											CHANNELS 9 Xposition Yposition Zposition Zrotation Xrotation Yrotation Xscale Yscale Zscale
											End Site
											{
												OFFSET 0 0 0
											}
										}
									}
								}
							}
						}
					}
				}
			}
		}
	}
}
MOTION
Frames: 4
Frame Time: 0.050000
0 0 0 0 0 0 1 1 1 1.08372e-008 1.05 0 -90 0 0 1 1 1 -0.607099 0.317995 0.617325 20 0 0 1 1 1 -0.207995 0.186567 0.645325 -12.7054 -30.2436 -42.8182 1 1 1 0.0777895 0.140171 0.299453 1.3193 2.21363 -20.7403 1 1 1 0.183499 0.0813216 0.24958 -4.82863 22.2627 5.03423 1 1 1 -0.607099 0.117995 0.617325 -2.91188e-019 0 0 1 1 1 -0.187113 0.0949949 0.645325 4.89122 -1.03833 -101.956 1 1 1 -0.308062 0.0700902 0.2115 -0.867166 -0.0755694 9.96156 1 1 1 -0.221432 0.0615417 0.11379 -3.83005 -1.77726 34.7734 1 1 0.999999 -0.747099 0.217995 0.617325 -2.91188e-019 0 0 1 1 1 -0.887099 0.217995 0.617325 5.00001 0 0 1 1 1 -1.06641 0.233683 0.617325 -1.70403e-007 0 0 1 1 1 -1.27561 0.251986 0.590325 -48.2189 -5.71613 34.589 1 1 1 -1.159 0.437528 0.572325 9.77294 -0.843954 -20.0009 1 1 1 -0.82844 0.40404 0.498445 50 -2.97977e-005 1.27319e-005 1 1 1 -0.743618 0.206194 0.432017 7.49065 38.8348 -85.2625 1 1 1 -0.676067 0.183763 0.408797 -28.7564 -6.15474 4.68909 0.999999 1 1 -0.639422 0.169865 0.402457 -7.67283e-007 2.13963e-007 -1.82714e-007 1 1 1 -0.665197 0.121813 0.397256 -14.4214 -2.78212 2.73009 1 1 1 -0.646392 0.0979572 0.393063 -7.67283e-007 2.13963e-007 -1.82714e-007 1 1 1 -0.631749 0.0785331 0.389018 -0.722301 -12.2158 -8.7691 1 1 1 -0.690528 0.104614 0.395609 -9.34867 -10.3967 -3.14283 1 1 1 -0.672186 0.077949 0.390134 -0.309751 -12.9235 -7.65973 1 1 1 -0.657623 0.0544907 0.382853 -3.80865 -29.8423 -19.1498 1 1 1 -0.716968 0.0915968 0.398017 0.529215 -9.34002 -3.49427 1 1 1 -0.707213 0.0648135 0.394055 0.529215 -9.34002 -3.49427 1 1 1 -0.698952 0.0416327 0.388782 0.335228 -4.666 -1.75214 1 1 1 -0.7489 0.08893 0.400775 14.9487 -2.94515 -3.85899 1 1 1 -0.746187 0.0718648 0.403774 0.692011 -4.92425 -0.493664 1 1 1 -0.743515 0.0483726 0.401697 -7.67283e-007 2.13963e-007 -1.82714e-007 1 1 1 -1.19299 0.0490123 0.572325 -15.7795 1.20876 30.0032 1 1 1 -0.923176 0.02976 0.778915 12.3624 -4.84827 91.5017 1 1 1 -1.04464 0.0257009 0.968596 -89.9079 33.1721 37.3218 1 1 1 -1.07181 -0.0291092 1.01176 -17.7818 -24.446 -1.45721 1 0.999999 1 -1.09168 -0.0572217 1.03154 1.34989e-008 7.14687e-008 -1.24541e-006 1 1 1 -1.10942 -0.0149361 1.0615 -8.60397 -12.2759 0.264425 1 1 1 -1.12997 -0.0225841 1.08294 1.34989e-008 7.14687e-008 -1.24541e-006 1 1 1 -1.14602 -0.0283006 1.10076 -1.06651 0.332796 -4.8706 1 1 1 -1.1094 0.0147091 1.06934 -6.45219 -8.11868 -4.66794 1 1 1 -1.13078 0.00845335 1.09344 1.34989e-008 7.14687e-008 -1.24541e-006 1 1 1 -1.14738 0.00400814 1.11625 -0.729063 0.0667409 -4.94571 1 1 1 -1.10878 0.0442069 1.07128 1.34989e-008 7.14687e-008 -1.24541e-006 1 1 1 -1.12773 0.0459385 1.09286 -0.121735 -0.927167 -9.95726 1 1 1 -1.14289 0.0473349 1.1129 -0.121735 -0.927167 -9.95726 1 1 1 -1.09938 0.0744136 1.06548 10.6613 9.4789 -11.9584 1 1 1 -1.11357 0.0794648 1.07446 0.990277 -1.23246 -4.733 1 1 1 -1.12871 0.0864758 1.09134 2.65225 -3.9203 -14.1473 1 1 1 
0 0 0 0 0 0 1 1 1 1.01782e-008 1.04631 0.104802 -90 0 0 1 1 1 -0.607099 0.317995 0.617325 20 0 0 1 1 1 -0.207995 0.186567 0.645325 -6.44897 -28.1837 -30.0418 1 1 1 0.0777895 0.140171 0.299453 0.6801 1.09455 -22.8642 1 1 1 0.183499 0.0813216 0.24958 -2.57552 18.2814 -3.24874 1 1 1 -0.607099 0.117995 0.617325 -2.91188e-019 0 0 1 1 1 -0.187113 0.0949949 0.645325 4.99961 -0.0581417 -90.6641 1 1 1 -0.308062 0.0700902 0.2115 -0.651812 -0.0425538 7.47129 1 1 1 -0.221432 0.0615417 0.11379 -3.29513 -1.23458 26.0707 1 1 1 -0.747099 0.217995 0.617325 -2.91188e-019 0 0 1 1 1 -0.887099 0.217995 0.617325 5.00001 0 0 1 1 1 -1.06641 0.233683 0.617325 -1.70403e-007 0 0 1 1 1 -1.27561 0.251986 0.590325 -48.2189 -5.71616 34.589 1 1 1 -1.159 0.437528 0.572325 9.77298 -0.832654 -19.8646 1 1 1 -0.82844 0.40404 0.498445 50 -3.63745e-005 1.91169e-005 1 1 1 -0.743618 0.206194 0.432017 6.01604 37.9095 -81.6196 1 1 1 -0.676067 0.183763 0.408797 -27.7689 -5.90744 4.58144 1 1 1 -0.639422 0.169865 0.402457 -7.67283e-007 2.13963e-007 -1.82714e-007 1 1 1 -0.665197 0.121813 0.397256 -13.9259 -2.67522 2.64798 1 1 1 -0.646392 0.0979572 0.393063 -7.67283e-007 2.13963e-007 -1.82714e-007 1 1 1 -0.631749 0.0785331 0.389018 -0.665188 -11.7972 -8.45865 1 1 1 -0.690528 0.104614 0.395609 -9.01257 -10.0475 -3.00459 1 1 1 -0.672186 0.077949 0.390134 -0.269407 -12.4792 -7.38906 1 1 1 -0.657623 0.0544907 0.382853 -3.47352 -28.8432 -18.3747 1 1 1 -0.716968 0.0915968 0.398017 0.52038 -9.01751 -3.37396 1 1 1 -0.707213 0.0648135 0.394055 0.52038 -9.01751 -3.37396 1 1 1 -0.698952 0.0416327 0.388782 0.326022 -4.50494 -1.69202 1 1 1 -0.7489 0.08893 0.400775 14.4361 -2.82738 -3.73927 1 1 1 -0.746187 0.0718648 0.403774 0.668788 -4.75435 -0.477586 1 1 1 -0.743515 0.0483726 0.401697 -7.67283e-007 2.13963e-007 -1.82714e-007 1 1 1 -1.19299 0.0490123 0.572325 -15.7795 1.21874 30.137 1 1 1 -0.923176 0.02976 0.778915 12.3624 -4.84825 91.5017 1 1 1 -1.04464 0.0257009 0.968596 -86.202 33.2251 35.1783 1 0.999999 1 -1.07181 -0.0291092 1.01176 -17.1107 -23.6166 -1.26561 1 0.999999 1 -1.09168 -0.0572217 1.03154 1.34989e-008 7.14687e-008 -1.24541e-006 1 1 1 -1.10942 -0.0149361 1.0615 -8.30283 -11.8526 0.286518 1 1 1 -1.12997 -0.0225841 1.08294 1.34989e-008 7.14687e-008 -1.24541e-006 1 1 1 -1.14602 -0.0283006 1.10076 -1.03023 0.319817 -4.70275 1 1 1 -1.1094 0.0147091 1.06934 -6.21696 -7.84788 -4.4905 1 1 1 -1.13078 0.00845335 1.09344 1.34989e-008 7.14687e-008 -1.24541e-006 1 1 1 -1.14738 0.00400814 1.11625 -0.704033 0.0633933 -4.77518 1 1 1 -1.10878 0.0442069 1.07128 1.34989e-008 7.14687e-008 -1.24541e-006 1 1 1 -1.12773 0.0459385 1.09286 -0.114864 -0.89562 -9.61384 1 1 1 -1.14289 0.0473349 1.1129 -0.114864 -0.89562 -9.61384 1 1 1 -1.09938 0.0744136 1.06548 10.2577 9.19098 -11.5131 1 1 1 -1.11357 0.0794648 1.07446 0.957836 -1.18862 -4.57012 1 1 1 -1.12871 0.0864758 1.09134 2.57719 -3.77485 -13.6616 1 1 1 
0 0 0 0 0 0 1 1 1 7.15039e-009 1.02938 0.204305 -90 0 0 1 1 1 -0.607099 0.317995 0.617325 20 0 0 1 1 1 -0.207995 0.186567 0.645325 -0.984213 -24.9928 -17.8736 1 1 1 0.0777895 0.140171 0.299453 -8.90647e-006 -1.4359e-005 -25 1 1 1 0.183499 0.0813216 0.24958 -0.981966 14.0418 -11.1944 1 1 1 -0.607099 0.117995 0.617325 -2.91188e-019 0 0 1 1 1 -0.187113 0.0949949 0.645325 4.91399 0.924295 -79.373 1 1 1 -0.308062 0.0700902 0.2115 -0.435226 -0.0189267 4.98092 1 1 1 -0.221432 0.0615417 0.11379 -2.68432 -0.779076 17.3646 1 1 1 -0.747099 0.217995 0.617325 -2.91188e-019 0 0 1 1 1 -0.887099 0.217995 0.617325 5.00001 0 0 1 1 1 -1.06641 0.233683 0.617325 -1.70403e-007 0 0 1 1 1 -1.27561 0.251986 0.590325 -48.2189 -5.71616 34.589 1 1 1 -1.159 0.437528 0.572325 9.773 -0.821354 -19.7283 1 1 1 -0.82844 0.40404 0.498445 50 -3.63745e-005 1.91169e-005 1 1 1 -0.743618 0.206194 0.432017 4.63665 36.9134 -78.054 1 1 1 -0.676067 0.183763 0.408797 -26.7814 -5.66201 4.46957 1 1 1 -0.639422 0.169865 0.402457 -7.67283e-007 2.13963e-007 -1.82714e-007 1 1 1 -0.665197 0.121813 0.397256 -13.4303 -2.56903 2.56495 1 1 1 -0.646392 0.0979572 0.393063 -7.67283e-007 2.13963e-007 -1.82714e-007 1 1 1 -0.631749 0.0785331 0.389018 -0.610479 -11.3782 -8.14908 1 1 1 -0.690528 0.104614 0.395609 -8.67768 -9.69752 -2.86859 1 1 1 -0.672186 0.077949 0.390134 -0.231276 -12.0346 -7.11916 1 1 1 -0.657623 0.0544907 0.382853 -3.15685 -27.8403 -17.6135 1 1 1 -0.716968 0.0915968 0.398017 0.510868 -8.69501 -3.25372 1 1 1 -0.707213 0.0648135 0.394055 0.510868 -8.69501 -3.25372 1 1 1 -0.698952 0.0416327 0.388782 0.316649 -4.3439 -1.63189 1 1 1 -0.7489 0.08893 0.400775 13.9234 -2.71069 -3.61851 1 1 1 -0.746187 0.0718648 0.403774 0.645525 -4.58446 -0.461442 1 1 1 -0.743515 0.0483726 0.401697 -7.67283e-007 2.13963e-007 -1.82714e-007 1 1 1 -1.19299 0.0490123 0.572325 -15.7794 1.22873 30.2707 1 1 1 -0.923176 0.02976 0.778915 12.3624 -4.84825 91.5017 1 1 1 -1.04464 0.0257009 0.968596 -82.4965 33.162 33.0353 1 1 1 -1.07181 -0.0291092 1.01176 -16.4468 -22.7853 -1.08574 1 0.999999 1 -1.09168 -0.0572217 1.03154 1.34989e-008 7.14687e-008 -1.24541e-006 1 1 1 -1.10942 -0.0149361 1.0615 -8.0023 -11.4293 0.306307 1 1 1 -1.12997 -0.0225841 1.08294 1.34989e-008 7.14687e-008 -1.24541e-006 1 1 1 -1.14602 -0.0283006 1.10076 -0.993902 0.306945 -4.5349 1 1 1 -1.1094 0.0147091 1.06934 -5.98272 -7.57636 -4.31431 1 1 1 -1.13078 0.00845335 1.09344 1.34989e-008 7.14687e-008 -1.24541e-006 1 1 1 -1.14738 0.00400814 1.11625 -0.678993 0.06012 -4.60466 1 1 1 -1.10878 0.0442069 1.07128 1.34989e-008 7.14687e-008 -1.24541e-006 1 1 1 -1.12773 0.0459385 1.09286 -0.108182 -0.864032 -9.27042 1 1 1 -1.14289 0.0473349 1.1129 -0.108182 -0.864032 -9.27042 1 1 1 -1.09938 0.0744136 1.06548 9.85672 8.89998 -11.0702 1 1 1 -1.11357 0.0794648 1.07446 0.925271 -1.14487 -4.40722 1 1 1 -1.12871 0.0864758 1.09134 2.50091 -3.63005 -13.1759 1 1 1 
0 0 0 0 0 0 1 1 1 -1.41281e-010 0.988604 0.303807 -90 0 0 1 1 1 -0.607099 0.317995 0.617325 20 0 0 1 1 1 -0.207995 0.186567 0.645325 3.4999 -20.8689 -6.40463 1 1 1 0.0777895 0.140171 0.299453 -0.720564 -1.06839 -27.1491 1 1 1 0.183499 0.0813216 0.24958 -0.0220695 9.63351 -18.8932 1 1 1 -0.607099 0.117995 0.617325 -2.91188e-019 0 0 1 1 1 -0.187113 0.0949949 0.645325 4.63754 1.87094 -68.0758 1 1 1 -0.308062 0.0700902 0.2115 -0.217819 -0.00473313 2.49048 1 1 1 -0.221432 0.0615417 0.11379 -2.01165 -0.421283 8.65477 1 1 1 -0.747099 0.217995 0.617325 -2.91188e-019 0 0 1 1 1 -0.887099 0.217995 0.617325 5.00001 0 0 1 1 1 -1.06641 0.233683 0.617325 -1.70403e-007 0 0 1 1 1 -1.27561 0.251986 0.590325 -48.2189 -5.71616 34.589 1 1 1 -1.159 0.437528 0.572325 9.77299 -0.810055 -19.592 1 1 1 -0.82844 0.40404 0.498445 50 -3.63745e-005 1.91169e-005 1 1 1 -0.743618 0.206194 0.432017 3.35442 35.8518 -74.5658 1 1 1 -0.676067 0.183763 0.408797 -25.7939 -5.41854 4.35352 1 1 1 -0.639422 0.169865 0.402457 -7.67283e-007 2.13963e-007 -1.82714e-007 1 1 1 -0.665197 0.121813 0.397256 -12.9346 -2.46356 2.48102 1 1 1 -0.646392 0.0979572 0.393063 -7.67283e-007 2.13963e-007 -1.82714e-007 1 1 1 -0.631749 0.0785331 0.389018 -0.558148 -10.959 -7.84036 1 1 1 -0.690528 0.104614 0.395609 -8.34398 -9.34677 -2.73479 1 1 1 -0.672186 0.077949 0.390134 -0.195345 -11.5899 -6.85 1 1 1 -0.657623 0.0544907 0.382853 -2.858 -26.8339 -16.8654 1 1 1 -0.716968 0.0915968 0.398017 0.500681 -8.37253 -3.13352 1 1 1 -0.707213 0.0648135 0.394055 0.500681 -8.37253 -3.13352 1 1 1 -0.698952 0.0416327 0.388782 0.307109 -4.18286 -1.57174 1 1 1 -0.7489 0.08893 0.400775 13.4104 -2.59508 -3.49672 1 1 1 -0.746187 0.0718648 0.403774 0.622216 -4.41457 -0.445232 1 1 1 -0.743515 0.0483726 0.401697 -7.67283e-007 2.13963e-007 -1.82714e-007 1 1 1 -1.19299 0.0490123 0.572325 -15.7794 1.23872 30.4045 1 1 1 -0.923176 0.02976 0.778915 12.3624 -4.84825 91.5017 1 1 1 -1.04464 0.0257009 0.968596 -78.8014 32.9833 30.9046 1 1 1 -1.07181 -0.0291092 1.01176 -15.7896 -21.9521 -0.917339 1 1 1 -1.09168 -0.0572217 1.03154 1.34989e-008 7.14687e-008 -1.24541e-006 1 1 1 -1.10942 -0.0149361 1.0615 -7.70237 -11.0058 0.323807 1 1 1 -1.12997 -0.0225841 1.08294 1.34989e-008 7.14687e-008 -1.24541e-006 1 1 1 -1.14602 -0.0283006 1.10076 -0.957541 0.29418 -4.36704 1 1 1 -1.1094 0.0147091 1.06934 -5.74948 -7.30413 -4.13934 1 1 1 -1.13078 0.00845335 1.09344 1.34989e-008 7.14687e-008 -1.24541e-006 1 1 1 -1.14738 0.00400814 1.11625 -0.653943 0.0569212 -4.43413 1 1 1 -1.10878 0.0442069 1.07128 1.34989e-008 7.14687e-008 -1.24541e-006 1 1 1 -1.12773 0.0459385 1.09286 -0.101689 -0.832406 -8.92701 1 1 1 -1.14289 0.0473349 1.1129 -0.101689 -0.832406 -8.92701 1 1 1 -1.09938 0.0744136 1.06548 9.45834 8.60593 -10.6297 1 1 1 -1.11357 0.0794648 1.07446 0.892582 -1.10122 -4.2443 1 1 1 -1.12871 0.0864758 1.09134 2.42342 -3.48589 -12.69 1 1 1 
